<mxfile host="65bd71144e">
    <diagram id="JYL2wrHxkhi11GrZ5vpz" name="Page-1">
        <mxGraphModel dx="2680" dy="-1464" grid="1" gridSize="10" guides="1" tooltips="1" connect="1" arrows="1" fold="1" page="1" pageScale="1" pageWidth="850" pageHeight="1100" background="#ffffff" math="0" shadow="0">
            <root>
                <mxCell id="0"/>
                <mxCell id="1" parent="0"/>
                <mxCell id="31" value="Faculty of Computing Students, Faculty of Computing Lecturers, Student Represenative Council Members, Admin" style="swimlane;whiteSpace=wrap;fillColor=#FFFFFF;" parent="1" vertex="1">
                    <mxGeometry x="40" y="2370" width="590" height="1520" as="geometry"/>
                </mxCell>
                <mxCell id="32" style="edgeStyle=none;html=1;exitX=0.5;exitY=1;exitDx=0;exitDy=0;entryX=0.504;entryY=-0.048;entryDx=0;entryDy=0;entryPerimeter=0;startArrow=none;" parent="31" source="39" target="34" edge="1">
                    <mxGeometry relative="1" as="geometry"/>
                </mxCell>
                <mxCell id="33" value="" style="ellipse;shape=startState;fillColor=#000000;strokeColor=#FFFFFF;" parent="31" vertex="1">
                    <mxGeometry x="100" y="40" width="30" height="30" as="geometry"/>
                </mxCell>
                <mxCell id="34" value="Clicks &quot;Reset Password&quot; link" style="fillColor=#d5e8d4;strokeColor=#82b366;" parent="31" vertex="1">
                    <mxGeometry x="40" y="110" width="150" height="50" as="geometry"/>
                </mxCell>
                <mxCell id="35" style="edgeStyle=none;html=1;entryX=0.5;entryY=0;entryDx=0;entryDy=0;exitX=0.42;exitY=0.993;exitDx=0;exitDy=0;exitPerimeter=0;" parent="31" source="36" target="37" edge="1">
                    <mxGeometry relative="1" as="geometry">
                        <mxPoint x="120" y="330" as="sourcePoint"/>
                    </mxGeometry>
                </mxCell>
                <mxCell id="36" value="Enters registered UTM email address" style="fillColor=#d5e8d4;strokeColor=#82b366;" parent="31" vertex="1">
                    <mxGeometry x="10" y="250" width="250" height="70" as="geometry"/>
                </mxCell>
                <mxCell id="37" value="Submits password reset request form" style="fillColor=#d5e8d4;strokeColor=#82b366;" parent="31" vertex="1">
                    <mxGeometry x="15" y="355" width="200" height="50" as="geometry"/>
                </mxCell>
                <mxCell id="38" value="" style="edgeStyle=none;html=1;exitX=0.5;exitY=1;exitDx=0;exitDy=0;entryX=0.504;entryY=-0.048;entryDx=0;entryDy=0;entryPerimeter=0;endArrow=none;" parent="31" source="33" target="39" edge="1">
                    <mxGeometry relative="1" as="geometry">
                        <mxPoint x="135" y="2440" as="sourcePoint"/>
                        <mxPoint x="135.5999999999999" y="2477.6" as="targetPoint"/>
                    </mxGeometry>
                </mxCell>
                <mxCell id="81" style="edgeStyle=none;html=1;exitX=0.5;exitY=0;exitDx=0;exitDy=0;entryX=0.5;entryY=0;entryDx=0;entryDy=0;" parent="31" source="39" target="34" edge="1">
                    <mxGeometry relative="1" as="geometry"/>
                </mxCell>
                <mxCell id="39" value="Start" style="text;strokeColor=none;align=center;fillColor=none;html=1;verticalAlign=middle;whiteSpace=wrap;rounded=0;" parent="31" vertex="1">
                    <mxGeometry x="85" y="60" width="60" height="30" as="geometry"/>
                </mxCell>
                <mxCell id="40" value="Checks email inbox and open email" style="fillColor=#d5e8d4;strokeColor=#82b366;" parent="31" vertex="1">
                    <mxGeometry x="20" y="530" width="200" height="50" as="geometry"/>
                </mxCell>
                <mxCell id="41" value="Clicks on password reset link" style="fillColor=#d5e8d4;strokeColor=#82b366;" parent="31" vertex="1">
                    <mxGeometry x="35" y="770" width="160" height="50" as="geometry"/>
                </mxCell>
                <mxCell id="75" value="Enters new password" style="fillColor=#d5e8d4;strokeColor=#82b366;" parent="31" vertex="1">
                    <mxGeometry x="40" y="1080" width="160" height="50" as="geometry"/>
                </mxCell>
                <mxCell id="84" value="Clicks on &quot;Resend Password Reset Email&quot; option" style="fillColor=#d5e8d4;strokeColor=#82b366;" parent="31" vertex="1">
                    <mxGeometry x="270" y="770" width="280" height="50" as="geometry"/>
                </mxCell>
                <mxCell id="76" value="Submits new password" style="fillColor=#d5e8d4;strokeColor=#82b366;" parent="31" vertex="1">
                    <mxGeometry x="40" y="1160" width="160" height="50" as="geometry"/>
                </mxCell>
                <mxCell id="105" style="edgeStyle=none;html=1;exitX=0.5;exitY=1;exitDx=0;exitDy=0;entryX=0.5;entryY=0;entryDx=0;entryDy=0;" parent="31" source="75" target="76" edge="1">
                    <mxGeometry relative="1" as="geometry"/>
                </mxCell>
                <mxCell id="42" value="Student Engagement System" style="swimlane;whiteSpace=wrap;fillColor=#FFFFFF;" parent="1" vertex="1">
                    <mxGeometry x="630" y="2370" width="970" height="1520" as="geometry"/>
                </mxCell>
                <mxCell id="43" style="edgeStyle=none;html=1;exitX=0.5;exitY=1;exitDx=0;exitDy=0;entryX=0.5;entryY=0;entryDx=0;entryDy=0;" parent="42" target="45" edge="1">
                    <mxGeometry relative="1" as="geometry">
                        <mxPoint x="391.94000000000005" y="400" as="sourcePoint"/>
                    </mxGeometry>
                </mxCell>
                <mxCell id="137" style="edgeStyle=none;html=1;exitX=0.5;exitY=1;exitDx=0;exitDy=0;entryX=0.5;entryY=0;entryDx=0;entryDy=0;" parent="42" source="45" target="51" edge="1">
                    <mxGeometry relative="1" as="geometry"/>
                </mxCell>
                <mxCell id="45" value="Generate unique password reset link" style="fillColor=#d5e8d4;strokeColor=#82b366;" parent="42" vertex="1">
                    <mxGeometry x="286.96999999999997" y="450" width="210" height="50" as="geometry"/>
                </mxCell>
                <mxCell id="78" value="Display &quot;invalid password&quot; error message" style="fillColor=#d5e8d4;strokeColor=#82b366;" parent="42" vertex="1">
                    <mxGeometry x="610" y="1170" width="240" height="40" as="geometry"/>
                </mxCell>
                <mxCell id="157" style="edgeStyle=none;html=1;exitX=1;exitY=0.5;exitDx=0;exitDy=0;entryX=0;entryY=0.5;entryDx=0;entryDy=0;" parent="42" source="82" target="83" edge="1">
                    <mxGeometry relative="1" as="geometry"/>
                </mxCell>
                <mxCell id="82" value="Receive email within reasonable time" style="rhombus;fillColor=#ffffc0;strokeColor=#ff0000;" parent="42" vertex="1">
                    <mxGeometry x="286.94" y="634" width="210" height="90" as="geometry"/>
                </mxCell>
                <mxCell id="83" value="Display &quot;Resend Password Reset Email&quot; option" style="fillColor=#d5e8d4;strokeColor=#82b366;" parent="42" vertex="1">
                    <mxGeometry x="573.06" y="654" width="280" height="50" as="geometry"/>
                </mxCell>
                <mxCell id="129" value="Display &quot;invalid email address&quot; error message" style="fillColor=#d5e8d4;strokeColor=#82b366;" parent="42" vertex="1">
                    <mxGeometry x="670" y="363" width="280" height="34" as="geometry"/>
                </mxCell>
                <mxCell id="130" value="Display password reset request form" style="fillColor=#d5e8d4;strokeColor=#82b366;" parent="42" vertex="1">
                    <mxGeometry x="246.94000000000005" y="110" width="290" height="50" as="geometry"/>
                </mxCell>
                <mxCell id="51" value="Send email with reset link" style="fillColor=#d5e8d4;strokeColor=#82b366;" parent="42" vertex="1">
                    <mxGeometry x="251.94" y="533" width="280" height="50" as="geometry"/>
                </mxCell>
                <mxCell id="162" style="edgeStyle=none;html=1;exitX=0.5;exitY=1;exitDx=0;exitDy=0;entryX=0.5;entryY=0;entryDx=0;entryDy=0;" parent="42" source="58" target="50" edge="1">
                    <mxGeometry relative="1" as="geometry"/>
                </mxCell>
                <mxCell id="58" value="Receive password reset request" style="fillColor=#d5e8d4;strokeColor=#82b366;" parent="42" vertex="1">
                    <mxGeometry x="300.44" y="877" width="183.06" height="50" as="geometry"/>
                </mxCell>
                <mxCell id="161" style="edgeStyle=none;html=1;exitX=1;exitY=0.5;exitDx=0;exitDy=0;entryX=0;entryY=0.5;entryDx=0;entryDy=0;" parent="42" source="126" target="129" edge="1">
                    <mxGeometry relative="1" as="geometry"/>
                </mxCell>
                <mxCell id="126" value="Valid email address" style="rhombus;fillColor=#ffffc0;strokeColor=#ff0000;" parent="42" vertex="1">
                    <mxGeometry x="264.44000000000005" y="360" width="255" height="40" as="geometry"/>
                </mxCell>
                <mxCell id="147" style="edgeStyle=none;html=1;exitX=1;exitY=0.5;exitDx=0;exitDy=0;entryX=0;entryY=0.5;entryDx=0;entryDy=0;" parent="42" source="50" target="74" edge="1">
                    <mxGeometry relative="1" as="geometry"/>
                </mxCell>
                <mxCell id="50" value="Verification link valid and not expired" style="rhombus;fillColor=#ffffc0;strokeColor=#ff0000;" parent="42" vertex="1">
                    <mxGeometry x="264.44000000000005" y="993" width="255" height="40" as="geometry"/>
                </mxCell>
                <mxCell id="61" value="False" style="text;strokeColor=none;align=center;fillColor=none;html=1;verticalAlign=middle;whiteSpace=wrap;rounded=0;" parent="42" vertex="1">
                    <mxGeometry x="521.9399999999999" y="980" width="60" height="30" as="geometry"/>
                </mxCell>
                <mxCell id="146" style="edgeStyle=none;html=1;exitX=1;exitY=0.5;exitDx=0;exitDy=0;entryX=1;entryY=0.5;entryDx=0;entryDy=0;" parent="42" source="74" target="83" edge="1">
                    <mxGeometry relative="1" as="geometry">
                        <Array as="points">
                            <mxPoint x="900" y="1013"/>
                            <mxPoint x="900" y="679"/>
                        </Array>
                    </mxGeometry>
                </mxCell>
                <mxCell id="74" value="Display error message" style="fillColor=#d5e8d4;strokeColor=#82b366;" parent="42" vertex="1">
                    <mxGeometry x="610" y="998" width="220" height="30" as="geometry"/>
                </mxCell>
                <mxCell id="151" style="edgeStyle=none;html=1;exitX=1;exitY=0.5;exitDx=0;exitDy=0;entryX=0;entryY=0.5;entryDx=0;entryDy=0;" parent="42" source="55" target="78" edge="1">
                    <mxGeometry relative="1" as="geometry"/>
                </mxCell>
                <mxCell id="152" style="edgeStyle=none;html=1;exitX=0.5;exitY=1;exitDx=0;exitDy=0;entryX=0.5;entryY=0;entryDx=0;entryDy=0;" parent="42" source="55" target="60" edge="1">
                    <mxGeometry relative="1" as="geometry"/>
                </mxCell>
                <mxCell id="55" value="Password valid" style="rhombus;fillColor=#ffffc0;strokeColor=#ff0000;" parent="42" vertex="1">
                    <mxGeometry x="306.94000000000017" y="1170" width="170" height="40" as="geometry"/>
                </mxCell>
                <mxCell id="159" style="edgeStyle=none;html=1;exitX=0.5;exitY=1;exitDx=0;exitDy=0;entryX=0.5;entryY=0;entryDx=0;entryDy=0;" parent="42" source="60" target="80" edge="1">
                    <mxGeometry relative="1" as="geometry"/>
                </mxCell>
                <mxCell id="60" value="Update user account with new password" style="fillColor=#d5e8d4;strokeColor=#82b366;" parent="42" vertex="1">
                    <mxGeometry x="201.97000000000003" y="1270" width="380" height="50" as="geometry"/>
                </mxCell>
                <mxCell id="160" style="edgeStyle=none;html=1;exitX=0.5;exitY=1;exitDx=0;exitDy=0;entryX=0.5;entryY=0;entryDx=0;entryDy=0;" parent="42" source="80" target="65" edge="1">
                    <mxGeometry relative="1" as="geometry"/>
                </mxCell>
                <mxCell id="80" value="Redirect user to confirmation page and display success message " style="fillColor=#d5e8d4;strokeColor=#82b366;" parent="42" vertex="1">
                    <mxGeometry x="201.94000000000005" y="1354" width="380" height="50" as="geometry"/>
                </mxCell>
                <mxCell id="65" value="" style="ellipse;html=1;shape=endState;fillColor=#000000;strokeColor=#ff0000;" parent="42" vertex="1">
                    <mxGeometry x="377.90999999999997" y="1450" width="28.06" height="30" as="geometry"/>
                </mxCell>
                <mxCell id="66" value="End" style="text;strokeColor=none;align=center;fillColor=none;html=1;verticalAlign=middle;whiteSpace=wrap;rounded=0;" parent="42" vertex="1">
                    <mxGeometry x="361.93999999999994" y="1480" width="60" height="30" as="geometry"/>
                </mxCell>
                <mxCell id="119" value="True&lt;span style=&quot;color: rgba(0, 0, 0, 0); font-family: monospace; font-size: 0px; text-align: start;&quot;&gt;%3CmxGraphModel%3E%3Croot%3E%3CmxCell%20id%3D%220%22%2F%3E%3CmxCell%20id%3D%221%22%20parent%3D%220%22%2F%3E%3CmxCell%20id%3D%222%22%20value%3D%22False%22%20style%3D%22text%3BstrokeColor%3Dnone%3Balign%3Dcenter%3BfillColor%3Dnone%3Bhtml%3D1%3BverticalAlign%3Dmiddle%3BwhiteSpace%3Dwrap%3Brounded%3D0%3B%22%20vertex%3D%221%22%20parent%3D%221%22%3E%3CmxGeometry%20x%3D%22880%22%20y%3D%222781%22%20width%3D%2260%22%20height%3D%2230%22%20as%3D%22geometry%22%2F%3E%3C%2FmxCell%3E%3C%2Froot%3E%3C%2FmxGraphModel%3E&lt;/span&gt;" style="text;strokeColor=none;align=center;fillColor=none;html=1;verticalAlign=middle;whiteSpace=wrap;rounded=0;" parent="42" vertex="1">
                    <mxGeometry x="380" y="410" width="60" height="30" as="geometry"/>
                </mxCell>
                <mxCell id="117" value="True&lt;span style=&quot;color: rgba(0, 0, 0, 0); font-family: monospace; font-size: 0px; text-align: start;&quot;&gt;%3CmxGraphModel%3E%3Croot%3E%3CmxCell%20id%3D%220%22%2F%3E%3CmxCell%20id%3D%221%22%20parent%3D%220%22%2F%3E%3CmxCell%20id%3D%222%22%20value%3D%22False%22%20style%3D%22text%3BstrokeColor%3Dnone%3Balign%3Dcenter%3BfillColor%3Dnone%3Bhtml%3D1%3BverticalAlign%3Dmiddle%3BwhiteSpace%3Dwrap%3Brounded%3D0%3B%22%20vertex%3D%221%22%20parent%3D%221%22%3E%3CmxGeometry%20x%3D%22880%22%20y%3D%222781%22%20width%3D%2260%22%20height%3D%2230%22%20as%3D%22geometry%22%2F%3E%3C%2FmxCell%3E%3C%2Froot%3E%3C%2FmxGraphModel%3E&lt;/span&gt;" style="text;strokeColor=none;align=center;fillColor=none;html=1;verticalAlign=middle;whiteSpace=wrap;rounded=0;" parent="42" vertex="1">
                    <mxGeometry x="380" y="1220" width="60" height="30" as="geometry"/>
                </mxCell>
                <mxCell id="153" value="True&lt;span style=&quot;color: rgba(0, 0, 0, 0); font-family: monospace; font-size: 0px; text-align: start;&quot;&gt;%3CmxGraphModel%3E%3Croot%3E%3CmxCell%20id%3D%220%22%2F%3E%3CmxCell%20id%3D%221%22%20parent%3D%220%22%2F%3E%3CmxCell%20id%3D%222%22%20value%3D%22False%22%20style%3D%22text%3BstrokeColor%3Dnone%3Balign%3Dcenter%3BfillColor%3Dnone%3Bhtml%3D1%3BverticalAlign%3Dmiddle%3BwhiteSpace%3Dwrap%3Brounded%3D0%3B%22%20vertex%3D%221%22%20parent%3D%221%22%3E%3CmxGeometry%20x%3D%22880%22%20y%3D%222781%22%20width%3D%2260%22%20height%3D%2230%22%20as%3D%22geometry%22%2F%3E%3C%2FmxCell%3E%3C%2Froot%3E%3C%2FmxGraphModel%3E&lt;/span&gt;" style="text;strokeColor=none;align=center;fillColor=none;html=1;verticalAlign=middle;whiteSpace=wrap;rounded=0;" parent="42" vertex="1">
                    <mxGeometry x="204.44000000000005" y="1020" width="60" height="30" as="geometry"/>
                </mxCell>
                <mxCell id="114" value="False" style="text;strokeColor=none;align=center;fillColor=none;html=1;verticalAlign=middle;whiteSpace=wrap;rounded=0;" parent="42" vertex="1">
                    <mxGeometry x="496.97" y="1160" width="60" height="30" as="geometry"/>
                </mxCell>
                <mxCell id="154" value="False" style="text;strokeColor=none;align=center;fillColor=none;html=1;verticalAlign=middle;whiteSpace=wrap;rounded=0;" parent="42" vertex="1">
                    <mxGeometry x="556.97" y="355" width="60" height="30" as="geometry"/>
                </mxCell>
                <mxCell id="156" value="False" style="text;strokeColor=none;align=center;fillColor=none;html=1;verticalAlign=middle;whiteSpace=wrap;rounded=0;" parent="42" vertex="1">
                    <mxGeometry x="496.94" y="654" width="60" height="30" as="geometry"/>
                </mxCell>
                <mxCell id="158" value="True&lt;span style=&quot;color: rgba(0, 0, 0, 0); font-family: monospace; font-size: 0px; text-align: start;&quot;&gt;%3CmxGraphModel%3E%3Croot%3E%3CmxCell%20id%3D%220%22%2F%3E%3CmxCell%20id%3D%221%22%20parent%3D%220%22%2F%3E%3CmxCell%20id%3D%222%22%20value%3D%22False%22%20style%3D%22text%3BstrokeColor%3Dnone%3Balign%3Dcenter%3BfillColor%3Dnone%3Bhtml%3D1%3BverticalAlign%3Dmiddle%3BwhiteSpace%3Dwrap%3Brounded%3D0%3B%22%20vertex%3D%221%22%20parent%3D%221%22%3E%3CmxGeometry%20x%3D%22880%22%20y%3D%222781%22%20width%3D%2260%22%20height%3D%2230%22%20as%3D%22geometry%22%2F%3E%3C%2FmxCell%3E%3C%2Froot%3E%3C%2FmxGraphModel%3E&lt;/span&gt;" style="text;strokeColor=none;align=center;fillColor=none;html=1;verticalAlign=middle;whiteSpace=wrap;rounded=0;" parent="42" vertex="1">
                    <mxGeometry x="170" y="710" width="60" height="30" as="geometry"/>
                </mxCell>
                <mxCell id="131" style="edgeStyle=none;html=1;exitX=1;exitY=0.5;exitDx=0;exitDy=0;entryX=0;entryY=0.5;entryDx=0;entryDy=0;" parent="1" source="34" target="130" edge="1">
                    <mxGeometry relative="1" as="geometry"/>
                </mxCell>
                <mxCell id="132" style="edgeStyle=none;html=1;exitX=0.5;exitY=1;exitDx=0;exitDy=0;entryX=0.5;entryY=0;entryDx=0;entryDy=0;" parent="1" source="130" target="36" edge="1">
                    <mxGeometry relative="1" as="geometry">
                        <Array as="points">
                            <mxPoint x="1022" y="2560"/>
                            <mxPoint x="175" y="2560"/>
                        </Array>
                    </mxGeometry>
                </mxCell>
                <mxCell id="133" style="edgeStyle=none;html=1;exitX=1;exitY=0.5;exitDx=0;exitDy=0;entryX=0;entryY=0.5;entryDx=0;entryDy=0;" parent="1" source="37" target="126" edge="1">
                    <mxGeometry relative="1" as="geometry"/>
                </mxCell>
                <mxCell id="135" style="edgeStyle=none;html=1;exitX=0.5;exitY=0;exitDx=0;exitDy=0;entryX=1;entryY=0.5;entryDx=0;entryDy=0;" parent="1" source="129" target="36" edge="1">
                    <mxGeometry relative="1" as="geometry">
                        <Array as="points">
                            <mxPoint x="1440" y="2655"/>
                        </Array>
                    </mxGeometry>
                </mxCell>
                <mxCell id="138" style="edgeStyle=none;html=1;exitX=0;exitY=0.5;exitDx=0;exitDy=0;entryX=1;entryY=0.5;entryDx=0;entryDy=0;" parent="1" source="51" target="40" edge="1">
                    <mxGeometry relative="1" as="geometry"/>
                </mxCell>
                <mxCell id="140" style="edgeStyle=none;html=1;exitX=0.5;exitY=1;exitDx=0;exitDy=0;entryX=0;entryY=0.5;entryDx=0;entryDy=0;" parent="1" source="40" target="82" edge="1">
                    <mxGeometry relative="1" as="geometry">
                        <Array as="points">
                            <mxPoint x="160" y="3050"/>
                        </Array>
                    </mxGeometry>
                </mxCell>
                <mxCell id="142" style="edgeStyle=none;html=1;exitX=0.5;exitY=1;exitDx=0;exitDy=0;entryX=0.5;entryY=0;entryDx=0;entryDy=0;" parent="1" source="83" target="84" edge="1">
                    <mxGeometry relative="1" as="geometry">
                        <Array as="points">
                            <mxPoint x="1343" y="3120"/>
                            <mxPoint x="450" y="3120"/>
                        </Array>
                    </mxGeometry>
                </mxCell>
                <mxCell id="143" style="edgeStyle=none;html=1;entryX=0.5;entryY=1;entryDx=0;entryDy=0;" parent="1" target="51" edge="1">
                    <mxGeometry relative="1" as="geometry">
                        <mxPoint x="310" y="3170" as="sourcePoint"/>
                        <Array as="points">
                            <mxPoint x="280" y="3170"/>
                            <mxPoint x="280" y="3000"/>
                            <mxPoint x="1022" y="3000"/>
                        </Array>
                    </mxGeometry>
                </mxCell>
                <mxCell id="144" style="edgeStyle=none;html=1;exitX=0.5;exitY=1;exitDx=0;exitDy=0;entryX=0.5;entryY=0;entryDx=0;entryDy=0;" parent="1" source="82" target="41" edge="1">
                    <mxGeometry relative="1" as="geometry">
                        <Array as="points">
                            <mxPoint x="1022" y="3110"/>
                            <mxPoint x="155" y="3110"/>
                        </Array>
                    </mxGeometry>
                </mxCell>
                <mxCell id="145" style="edgeStyle=none;html=1;exitX=0.5;exitY=1;exitDx=0;exitDy=0;entryX=0.5;entryY=0;entryDx=0;entryDy=0;" parent="1" source="41" target="58" edge="1">
                    <mxGeometry relative="1" as="geometry">
                        <Array as="points">
                            <mxPoint x="155" y="3230"/>
                            <mxPoint x="1022" y="3230"/>
                        </Array>
                    </mxGeometry>
                </mxCell>
                <mxCell id="148" style="edgeStyle=none;html=1;exitX=0.5;exitY=1;exitDx=0;exitDy=0;entryX=0.5;entryY=0;entryDx=0;entryDy=0;" parent="1" source="50" target="75" edge="1">
                    <mxGeometry relative="1" as="geometry">
                        <Array as="points">
                            <mxPoint x="1022" y="3420"/>
                            <mxPoint x="160" y="3420"/>
                        </Array>
                    </mxGeometry>
                </mxCell>
                <mxCell id="149" style="edgeStyle=none;html=1;exitX=1;exitY=0.5;exitDx=0;exitDy=0;entryX=0;entryY=0.5;entryDx=0;entryDy=0;" parent="1" source="76" target="55" edge="1">
                    <mxGeometry relative="1" as="geometry"/>
                </mxCell>
                <mxCell id="150" style="edgeStyle=none;html=1;exitX=0.5;exitY=0;exitDx=0;exitDy=0;entryX=1;entryY=0.5;entryDx=0;entryDy=0;" parent="1" source="78" target="75" edge="1">
                    <mxGeometry relative="1" as="geometry">
                        <Array as="points">
                            <mxPoint x="1360" y="3480"/>
                        </Array>
                    </mxGeometry>
                </mxCell>
                <mxCell id="163" value="act Reset Password" style="shape=umlFrame;whiteSpace=wrap;html=1;rounded=0;shadow=0;comic=0;labelBackgroundColor=none;strokeWidth=1;fontFamily=Verdana;fontSize=10;align=center;" vertex="1" parent="1">
                    <mxGeometry x="-40" y="2330" width="1680" height="1620" as="geometry"/>
                </mxCell>
            </root>
        </mxGraphModel>
    </diagram>
</mxfile>